<svg id="Layer_1" data-name="Layer 1" xmlns="http://www.w3.org/2000/svg" viewBox="0 0 300 300"><defs><style>.cls-1{fill:#3e9dd5;fill-rule:evenodd;}</style></defs><title>Artboard 1</title><path class="cls-1" d="M150.5,3A147.6,147.6,0,0,1,294.8,181.16H260.15a28.08,28.08,0,0,0-27,20.83,28.05,28.05,0,0,0-26.3,27.92h0a28,28,0,0,0,28,28h16.82A147.47,147.47,0,0,1,43.1,251.59c29.15,7.59,62.09-3.29,79.8-28a34.22,34.22,0,0,1,3.16,3.51L136.93,241a5.52,5.52,0,0,0,9.13-.64l8.38-14.51a5.53,5.53,0,0,0-4-8.23L133,215.08a32.36,32.36,0,0,1-3.64-.72l106.43-65.83a7.43,7.43,0,0,0,3.73-8.5c-10.36-26.91-18.42-54.6-22.4-83.64a7.44,7.44,0,0,0-9.1-5.26,337.5,337.5,0,0,1-83.63,22.41h0a7.41,7.41,0,0,0-5.5,7L115.07,206a31.15,31.15,0,0,1-2.14-2.48L102,189.62a5.52,5.52,0,0,0-9.13.65l-8.38,14.51a5.53,5.53,0,0,0,4,8.23L106,215.5a32.9,32.9,0,0,1,3.84.77c-19.49,25.56-75.54,31-89.42,3.81A146.47,146.47,0,0,1,4,168.19h43.7a28,28,0,0,0,28-28h0a28.05,28.05,0,0,0-26.3-27.92,28.08,28.08,0,0,0-27-20.83H15.3A147.53,147.53,0,0,1,150.5,3ZM291,195.55a147.23,147.23,0,0,1-26,48H234.77a13.64,13.64,0,0,1-13.59-13.59h0a13.64,13.64,0,0,1,13.59-13.59h4.59a7.19,7.19,0,0,0,7.19-7.19,13.64,13.64,0,0,1,13.59-13.59ZM3,153.81q0-1.65,0-3.31a147.39,147.39,0,0,1,6.89-44.66H22.37A13.64,13.64,0,0,1,36,119.43a7.19,7.19,0,0,0,7.19,7.19h4.59a13.64,13.64,0,0,1,13.59,13.59h0a13.64,13.64,0,0,1-13.59,13.59Zm182.07-14.23h0a6.42,6.42,0,0,1,1.71,12.72,44.1,44.1,0,0,1-46.74-27h0c-3.22-7.82,8.68-12.69,11.88-4.87a31.26,31.26,0,0,0,33.13,19.13Zm19.56-72.17C183.09,77,159.33,83.26,133.52,86.48l-3.34,109.94,93.54-57.85c-9.6-23.39-16.53-47-19.06-71.14Z"/></svg>